# xmcd
#
# Track frame offsets:
#	150
#	10958
#	22744
#	32445
#	42168
#	53329
#	62498
#	73299
#	82983
#	95624
#	105752
#	117100
#	128191
#	137928
#	151109
#	161430
#
# Disc length: 2299 seconds
#
# Revision: 1
# Processed by: cddbd v1.5.2PL0 Copyright (c) Steve Scherf et al.
# Submitted via: audiograbber 1.83.01
#
DISCID=b708f910
DTITLE=Hank Locklin - Golden Memories - CD 3
DYEAR=2008
DGENRE=Country
TTITLE0=Why Baby Why
TTITLE1=Love Or Spite
TTITLE2=A Good Woman's Love
TTITLE3=I'm A Fool
TTITLE4=Seven Or Eleven
TTITLE5=You Can't Never Tell
TTITLE6=She's Better Than Most
TTITLE7=How Much
TTITLE8=(I'm So Tired Of) Going Home All By Myself
TTITLE9=The Rich And The Poor
TTITLE10=By The Sweat Of My Brow
TTITLE11=Fourteen Karat Gold
TTITLE12=Geisha Girl
TTITLE13=Livin' Alone
TTITLE14=Why Don't You Haul Off And Love Me
TTITLE15=Send Me The Pillow You Dream On (1957 version)
EXTD=
EXTT0=
EXTT1=
EXTT2=
EXTT3=
EXTT4=
EXTT5=
EXTT6=
EXTT7=
EXTT8=
EXTT9=
EXTT10=
EXTT11=
EXTT12=
EXTT13=
EXTT14=
EXTT15=
PLAYORDER=
